HIERARCHY
ROOT RootJoint
{
    OFFSET   0.000000   0.000000   0.000000
    CHANNELS 6 Xposition Yposition Zposition Xrotation Yrotation Zrotation
    JOINT pelvis_lowerback
    {
        OFFSET   0.000000   0.093605   0.000000
        CHANNELS 3 Xrotation Yrotation Zrotation
        JOINT lowerback_torso
        {
            OFFSET   0.000000   0.100000   0.000000
            CHANNELS 3 Xrotation Yrotation Zrotation
            JOINT torso_head
            {
                OFFSET   0.000000   0.282350   0.000000
                CHANNELS 3 Xrotation Yrotation Zrotation
                End Site
                {
                    OFFSET   0.000000   0.192650   0.000000
                }
            }
            JOINT rTorso_Clavicle
            {
                OFFSET  -0.001000   0.157500   0.000000
                CHANNELS 3 Xrotation Yrotation Zrotation
                JOINT rShoulder
                {
                    OFFSET  -0.117647   0.000000   0.000000
                    CHANNELS 3 Xrotation Yrotation Zrotation
                    JOINT rElbow
                    {
                        OFFSET  -0.245000   0.000000   0.000000
                        CHANNELS 3 Xrotation Yrotation Zrotation
                        JOINT rWrist
                        {
                            OFFSET  -0.240000   0.000000   0.000000
                            CHANNELS 3 Xrotation Yrotation Zrotation
                            End Site
                            {
                                OFFSET  -0.116353  -0.002500   0.000000
                            }
                        }
                    }
                }
            }
            JOINT lTorso_Clavicle
            {
                OFFSET   0.001000   0.157500   0.000000
                CHANNELS 3 Xrotation Yrotation Zrotation
                JOINT lShoulder
                {
                    OFFSET   0.117647   0.000000   0.000000
                    CHANNELS 3 Xrotation Yrotation Zrotation
                    JOINT lElbow
                    {
                        OFFSET   0.245000   0.000000   0.000000
                        CHANNELS 3 Xrotation Yrotation Zrotation
                        JOINT lWrist
                        {
                            OFFSET   0.240000   0.000000   0.000000
                            CHANNELS 3 Xrotation Yrotation Zrotation
                            End Site
                            {
                                OFFSET   0.116353  -0.002500   0.000000
                            }
                        }
                    }
                }
            }
        }
    }
    JOINT rHip
    {
        OFFSET  -0.100000  -0.051395   0.000000
        CHANNELS 3 Xrotation Yrotation Zrotation
        JOINT rKnee
        {
            OFFSET   0.000000  -0.410000   0.000000
            CHANNELS 3 Xrotation Yrotation Zrotation
            JOINT rAnkle
            {
                OFFSET   0.000000  -0.390000   0.000000
                CHANNELS 3 Xrotation Yrotation Zrotation
                JOINT rToeJoint
                {
                    OFFSET   0.000000  -0.050000   0.130000
                    CHANNELS 3 Xrotation Yrotation Zrotation
                    End Site
                    {
                        OFFSET  -0.010000   0.002000   0.060000
                    }
                }
            }
        }
    }
    JOINT lHip
    {
        OFFSET   0.100000  -0.051395   0.000000
        CHANNELS 3 Xrotation Yrotation Zrotation
        JOINT lKnee
        {
            OFFSET   0.000000  -0.410000   0.000000
            CHANNELS 3 Xrotation Yrotation Zrotation
            JOINT lAnkle
            {
                OFFSET   0.000000  -0.390000   0.000000
                CHANNELS 3 Xrotation Yrotation Zrotation
                JOINT lToeJoint
                {
                    OFFSET   0.000000  -0.050000   0.130000
                    CHANNELS 3 Xrotation Yrotation Zrotation
                    End Site
                    {
                        OFFSET   0.010000   0.002000   0.060000
                    }
                }
            }
        }
    }
}
MOTION
Frames: 17
Frame Time:   0.008333
 -2.376719   0.925631   3.975860   0.000000   0.000000   0.000000   0.000000   0.000000   0.000000   0.000000   0.000000   0.000000   0.000000   0.000000   0.000000   0.000000   0.000000   0.000000   0.000000   0.000000   0.000000   0.000000   0.000000   0.000000   0.000000   0.000000   0.000000   0.000000   0.000000   0.000000   0.000000   0.000000   0.000000   0.000000   0.000000   0.000000   0.000000   0.000000   0.000000   0.000000   0.000000   0.000000   0.000000   0.000000   0.000000   0.000000   0.000000   0.000000   0.000000   0.000000   0.000000   0.000000   0.000000   0.000000   0.000000   0.000000   0.000000   0.000000   0.000000   0.000000   0.000000   0.000000   0.000000
 -2.376750   0.926242   3.975983   0.119457   0.158280  -0.174185  -0.196419  -0.088350   0.150251   0.014013  -0.129180   0.091520  -0.088024   0.155279   0.037050   0.096585  -0.366639   0.359517   0.734839   0.325571   2.041388   0.016211   0.749244  -0.005102   0.432658  -0.304895  -2.958944   0.142342   0.371278  -0.535590   1.222848  -0.229781  -1.941015   0.022916  -1.081976   0.012473   0.508493   0.426079   2.765538  -0.289986   0.247541   0.132175   0.402729   0.000152   0.001429  -0.172836  -0.033603  -0.053841  -0.364828  -0.000299  -0.001189  -0.413872  -0.175263   0.264067   1.176321  -0.000936  -0.000149  -1.191288   0.070423  -0.033751   0.222297  -0.000110   0.000105
 -2.376768   0.927276   3.976367   0.202183   0.328630  -0.374575  -0.425127  -0.196998   0.316751   0.009056  -0.283094   0.212404  -0.171669   0.305116   0.084904   0.195004  -0.697310   1.451863   1.441742   0.697501   4.668035   0.037426   1.477956  -0.008251   0.889992  -0.392281  -5.201329   0.291065   0.673846  -1.796984   2.412593  -0.551991  -4.472781   0.053018  -2.134722   0.021107   1.055382   0.549913   4.801578  -0.574897   0.500358   0.233409   0.818179   0.000506   0.002681  -0.334530  -0.060856  -0.103067  -0.722172  -0.000687  -0.002199  -0.695403  -0.341787   0.604699   2.426940  -0.002311   0.000032  -2.303152   0.138771  -0.063078   0.383730  -0.000248   0.000190
 -2.376755   0.928314   3.976938   0.276990   0.497330  -0.573395  -0.682711  -0.323471   0.483149  -0.028107  -0.452562   0.339951  -0.256946   0.445100   0.132862   0.293686  -0.994302   2.992979   2.116385   1.105935   7.679414   0.058053   2.162028  -0.009786   1.331678  -0.416454  -6.587705   0.437879   0.916975  -3.489779   3.562853  -0.957716  -7.386789   0.082417  -3.127819   0.026547   1.583224   0.560883   5.993471  -0.875343   0.737918   0.281101   1.204656   0.000955   0.003517  -0.486409  -0.086163  -0.149259  -1.059283  -0.001110  -0.002901  -0.864655  -0.497067   0.979362   3.642426  -0.003738   0.000362  -3.339140   0.204090  -0.088743   0.530338  -0.000394   0.000260
 -2.376712   0.929057   3.977630   0.349926   0.658665  -0.764887  -0.957253  -0.464957   0.646381  -0.091520  -0.633741   0.468126  -0.343676   0.575606   0.178511   0.396199  -1.270781   4.786581   2.759987   1.547249  10.948521   0.075612   2.799961  -0.010264   1.753157  -0.423934  -7.331105   0.584159   1.118799  -5.418832   4.674529  -1.444687 -10.553167   0.107616  -4.060311   0.029882   2.088453   0.516234   6.559399  -1.195370   0.959732   0.278677   1.556034   0.001408   0.003985  -0.629297  -0.110097  -0.192774  -1.375876  -0.001522  -0.003341  -0.944504  -0.641534   1.374143   4.806530  -0.005061   0.000725  -4.305648   0.266119  -0.111228   0.660698  -0.000524   0.000306
 -2.376649   0.929281   3.978391   0.421017   0.807773  -0.947685  -1.238461  -0.618466   0.805406  -0.171820  -0.823708   0.595047  -0.430057   0.697274   0.221507   0.504931  -1.534410   6.701908   3.372869   2.019027  14.388401   0.089183   3.392733  -0.010097   2.153149  -0.432764  -7.636576   0.730133   1.290565  -7.455310   5.746174  -2.010567 -13.883509   0.127313  -4.933988   0.031897   2.570986   0.439287   6.704621  -1.533389   1.166984   0.233937   1.873206   0.001809   0.004165  -0.763665  -0.132757  -0.233769  -1.671893  -0.001890  -0.003567  -0.951938  -0.775374   1.781452   5.916913  -0.006211   0.001043  -5.207515   0.324828  -0.130889   0.776590  -0.000629   0.000327
 -2.376587   0.928820   3.979182   0.489385   0.939803  -1.120342  -1.518408  -0.781289   0.957234  -0.260948  -1.020036   0.714889  -0.514679   0.810726   0.263348   0.621180  -1.787860   8.655434   3.954532   2.520576  17.942118   0.098713   3.942635  -0.009566   2.531905  -0.449887  -7.654387   0.875598   1.437815  -9.531574   6.757222  -2.642377 -17.268906   0.141247  -5.752499   0.032990   3.032316   0.336547   6.554670  -1.886731   1.360934   0.155074   2.158485   0.002126   0.004130  -0.889933  -0.154204  -0.272382  -1.947742  -0.002191  -0.003621  -0.900608  -0.898760   2.195801   6.973795  -0.007171   0.001267  -6.049073   0.380251  -0.148053   0.880056  -0.000708   0.000326
 -2.376437   0.926908   3.979492   0.634620   1.034508  -1.261094  -1.681646  -0.919648   1.131466  -0.452196  -1.204249   0.781397  -0.744523   0.807953   0.271096   0.762795  -1.935588   9.887095   4.584981   2.977153  21.428811   0.112678   4.725278  -0.011062   2.809046  -0.486376  -6.511893   1.035824   1.588455 -10.825390   7.604016  -3.365458 -20.676649   0.148344  -6.599944   0.034135   3.465167   0.060439   5.389753  -2.420692   1.290100   0.031853   2.698711   0.003001   0.003385  -1.004161  -0.233035  -0.135849  -1.928869  -0.001731  -0.002904  -0.847035  -0.982059   2.557967   7.351861  -0.006454   0.001173  -6.770498   0.573000  -0.019311   1.109208  -0.001257   0.000685
 -2.376265   0.923775   3.979525   0.788361   1.157233  -1.388262  -1.787078  -1.062554   1.301753  -0.623235  -1.385561   0.839322  -0.969043   0.799917   0.275724   0.884415  -2.036088  10.835575   5.140461   3.459619  24.550714   0.118081   5.470137  -0.012274   3.091439  -0.427227  -5.435271   1.169232   1.691849 -11.836106   8.347428  -4.103604 -23.723419   0.147804  -7.403345   0.034640   3.885965  -0.298667   4.304487  -2.937215   1.207382  -0.105954   3.224165   0.003651   0.002843  -1.106458  -0.310723  -0.009352  -1.889455  -0.001338  -0.002333  -0.867204  -1.061566   2.895822   7.592307  -0.005591   0.001108  -7.451266   0.752597   0.103849   1.306129  -0.001566   0.000950
 -2.376087   0.919549   3.979398   0.935869   1.288270  -1.506504  -1.851572  -1.194801   1.465174  -0.765699  -1.554741   0.894387  -1.174338   0.791992   0.280421   0.985527  -2.103515  11.585513   5.626931   3.951663  27.365351   0.117759   6.172883  -0.013115   3.369102  -0.326660  -4.588384   1.277031   1.762985 -12.645788   8.998733  -4.838225 -26.463866   0.142443  -8.160075   0.034415   4.290770  -0.682991   3.452598  -3.408267   1.131737  -0.247730   3.717297   0.004061   0.002453  -1.201170  -0.383619   0.108433  -1.848987  -0.001022  -0.001871  -0.944001  -1.137029   3.215063   7.777633  -0.004786   0.001038  -8.088916   0.918827   0.220931   1.483454  -0.001731   0.001126
 -2.375686   0.918674   3.979844   0.940601   1.207095  -0.976097  -1.890914  -1.229095   1.127013  -0.866535  -1.641213   0.737287  -1.350593   0.787632   0.267572   1.076382  -2.145105  12.499676   6.051006   4.450149  30.048311   0.115722   6.830403  -0.012853   3.640954  -0.227979  -3.946549   1.396188   1.863540 -13.512919   9.586533  -5.519109 -28.993282   0.135302  -8.844544   0.033153   4.671647  -0.952075   2.855726  -3.673983   1.084259  -0.967964   4.196449   0.004059   0.001188  -1.278520  -0.453842   0.215233  -1.729595  -0.000720  -0.001746  -1.233053  -1.183756   2.620722   8.414488  -0.003585   0.000153  -8.309441   1.037870   0.139659   1.074061  -0.001891   0.000914
 -2.375801   0.918778   3.980472   0.974125   1.163323  -0.976801  -1.958505  -1.295812   1.279651  -0.972801  -1.737065   0.733271  -1.519329   0.781416   0.254302   1.164904  -2.189321  13.209986   6.430004   4.926035  32.496403   0.110928   7.444918  -0.012219   3.899111  -0.114517  -3.302982   1.513256   1.957474 -14.317000  10.105565  -6.190789 -31.404716   0.126780  -9.493359   0.031466   5.033569  -1.246034   2.194295  -3.913080   1.102883  -0.970293   4.683793   0.003286   0.000796  -1.515832  -0.422381   0.425099  -1.616523  -0.000778  -0.001399  -1.421351  -1.213809   2.620556   8.857280  -0.002913  -0.000103  -8.697749   1.199971   0.206781   1.302326  -0.001639   0.000934
 -2.376050   0.918878   3.981113   1.038600   1.151383  -0.970021  -2.034137  -1.367427   1.391249  -1.087418  -1.835276   0.756588  -1.681878   0.774965   0.257316   1.247775  -2.231124  13.783185   6.766061   5.383096  34.741940   0.104192   8.020630  -0.011500   4.145556   0.006983  -2.724339   1.616937   2.039277 -14.962607  10.564350  -6.836798 -33.603733   0.116896 -10.103122   0.029513   5.378486  -1.560195   1.577196  -4.136828   1.109501  -0.967964   5.085436   0.002609   0.000591  -1.722913  -0.412822   0.552658  -1.568677  -0.000679  -0.001120  -1.589193  -1.254059   2.620749   9.195194  -0.002382  -0.000198  -9.102814   1.344405   0.288498   1.508357  -0.001462   0.000935
 -2.376476   0.919019   3.981859   1.142617   1.183033  -0.978295  -2.098052  -1.386522   1.410954  -1.242689  -1.892555   0.874477  -1.829001   0.725360   0.283198   1.344260  -2.418693  13.941708   7.140431   5.839892  36.473157   0.094863   8.632463  -0.011251   4.339189   0.327224  -1.436932   1.748466   2.096814 -15.118248  10.850509  -7.550427 -35.503784   0.105402 -10.744157   0.027268   5.690720  -1.966177   0.404103  -4.212358   1.087277  -0.938652   5.127140   0.002078   0.000477  -1.772560  -0.381797   0.629013  -1.389173  -0.000707  -0.000830  -1.696280  -1.315897   2.647947   9.309665  -0.001932  -0.000178  -9.296792   1.481761   0.398582   1.640013  -0.001314   0.000882
 -2.377029   0.919193   3.982535   1.294647   1.226568  -0.991794  -2.158928  -1.394402   1.411987  -1.407722  -1.945974   0.981775  -1.968915   0.681383   0.313236   1.419372  -2.594224  13.810297   7.482144   6.258882  37.887054   0.083442   9.202746  -0.010871   4.523250   0.658011  -0.419415   1.840578   2.133137 -14.998952  11.093907  -8.214161 -37.091713   0.092594 -11.347512   0.024941   5.984787  -2.396288  -0.514617  -4.292117   1.066131  -0.896834   5.079008   0.001676   0.000371  -1.849273  -0.353110   0.699934  -1.216120  -0.000730  -0.000578  -1.820929  -1.377644   2.689210   9.350275  -0.001558  -0.000145  -9.498929   1.608177   0.505727   1.772460  -0.001201   0.000842
 -2.377699   0.919376   3.983142   1.473595   1.277206  -1.005904  -2.204758  -1.401025   1.398918  -1.567395  -1.997419   1.069123  -2.099522   0.640990   0.341714   1.470046  -2.750174  13.486026   7.790913   6.648271  39.057923   0.071618   9.733995  -0.010398   4.697864   0.957814   0.279333   1.904283   2.155600 -14.697346  11.305431  -8.826017 -38.433668   0.079856 -11.909004   0.022689   6.264615  -2.791198  -1.133021  -4.382252   1.045901  -0.847552   4.991590   0.001372   0.000269  -1.939794  -0.326962   0.766417  -1.060472  -0.000736  -0.000375  -1.954776  -1.437717   2.739041   9.344045  -0.001244  -0.000116  -9.705080   1.725144   0.608130   1.892674  -0.001100   0.000797
 -2.378476   0.919557   3.983698   1.668491   1.333721  -1.020017  -2.234013  -1.407764   1.373599  -1.715262  -2.046622   1.137045  -2.219858   0.603342   0.367476   1.501002  -2.889451  13.035793   8.070915   7.010050  40.039591   0.060336  10.228756  -0.009872   4.864566   1.224126   0.724372   1.947668   2.169645 -14.278289  11.491847  -9.389209 -39.583005   0.067999 -12.430268   0.020560   6.532724  -3.138905  -1.515955  -4.480890   1.026350  -0.791697   4.884063   0.001143   0.000174  -2.035300  -0.303152   0.828976  -0.919437  -0.000731  -0.000215  -2.093176  -1.496125   2.796303   9.306265  -0.000980  -0.000096  -9.909955   1.833404   0.705650   2.001752  -0.001008   0.000748
